<svg xmlns="http://www.w3.org/2000/svg" viewBox="0 0 512 512">
  <defs>
    <linearGradient id="bg" x1="0" y1="0" x2="1" y2="1">
      <stop offset="0%" stop-color="#1a2030"/>
      <stop offset="100%" stop-color="#0f1115"/>
    </linearGradient>
  </defs>
  <rect width="512" height="512" rx="96" fill="url(#bg)"/>
  <g fill="#e7e9ee" stroke="#6ea8ff" stroke-width="10" stroke-linejoin="round">
    <path d="M120 128 h120 a40 40 0 0 1 40 40 v240 a32 32 0 0 0 -32 -32 h-128 z" fill="#20242d"/>
    <path d="M392 128 h-120 a40 40 0 0 0 -40 40 v240 a32 32 0 0 1 32 -32 h128 z" fill="#171a21"/>
  </g>
  <g stroke="#6ea8ff" stroke-width="8" stroke-linecap="round" opacity="0.75">
    <line x1="150" y1="190" x2="240" y2="190"/>
    <line x1="150" y1="230" x2="230" y2="230"/>
    <line x1="150" y1="270" x2="240" y2="270"/>
  </g>
  <g stroke="#ffcb6b" stroke-width="8" stroke-linecap="round" opacity="0.9">
    <line x1="282" y1="190" x2="372" y2="190"/>
    <line x1="282" y1="230" x2="352" y2="230"/>
  </g>
  <g stroke="#9aa3b2" stroke-width="8" stroke-linecap="round" opacity="0.6">
    <line x1="282" y1="270" x2="372" y2="270"/>
  </g>
  <circle cx="256" cy="408" r="14" fill="#6ea8ff"/>
</svg>
